# xmcd
#
# Track frame offsets: 
#        150
#        20892
#        34727
#        59065
#        75145
#        91715
#        114107
#        129955
#        152342
#        166912
#        193102
#        209005
#
# Disc length: 3082 seconds
#
# Revision: 1
# Processed by: cddbd v1.5.2PL0 Copyright (c) Steve Scherf et al.
# Submitted via: ExactAudioCopy v0.99pb3
#
DISCID=8f0c080c
DTITLE=Rose-Marie - The Rose-Marie Party Album
DYEAR=1989
DGENRE=Party
TTITLE0=Party Medley 1
TTITLE1=Your Cheatin' Heart
TTITLE2=Love and Romance Medley
TTITLE3=I Can't Stop Loving You
TTITLE4=My Special Angel
TTITLE5=Beatles Medley
TTITLE6=These Boots Are Made For Walking
TTITLE7=Mersey Medley
TTITLE8=Only Toiu (And You Alone)
TTITLE9=Waltz Medley
TTITLE10=I'm Coming Home
TTITLE11=Party Medley 2
EXTD=
EXTT0=
EXTT1=
EXTT2=
EXTT3=
EXTT4=
EXTT5=
EXTT6=
EXTT7=
EXTT8=
EXTT9=
EXTT10=
EXTT11=
PLAYORDER=
